<svg width="16" height="17" viewBox="0 0 16 17" fill="none" xmlns="http://www.w3.org/2000/svg">
<g id="clock">
<g id="Icon">
<path fill-rule="evenodd" clip-rule="evenodd" d="M8.0013 2.5C4.68759 2.5 2.0013 5.18629 2.0013 8.5C2.0013 11.8137 4.68759 14.5 8.0013 14.5C11.315 14.5 14.0013 11.8137 14.0013 8.5C14.0013 5.18629 11.315 2.5 8.0013 2.5ZM0.667969 8.5C0.667969 4.44991 3.95121 1.16667 8.0013 1.16667C12.0514 1.16667 15.3346 4.44991 15.3346 8.5C15.3346 12.5501 12.0514 15.8333 8.0013 15.8333C3.95121 15.8333 0.667969 12.5501 0.667969 8.5Z" fill="black"/>
<path fill-rule="evenodd" clip-rule="evenodd" d="M8.0013 3.83333C8.36949 3.83333 8.66797 4.13181 8.66797 4.5V8.08798L10.9661 9.23705C11.2954 9.40171 11.4289 9.80216 11.2643 10.1315C11.0996 10.4608 10.6991 10.5943 10.3698 10.4296L7.70316 9.09629C7.4773 8.98336 7.33464 8.75252 7.33464 8.5V4.5C7.33464 4.13181 7.63311 3.83333 8.0013 3.83333Z" fill="black"/>
</g>
</g>
</svg>
