<svg width="17" height="17" viewBox="0 0 17 17" fill="none" xmlns="http://www.w3.org/2000/svg">
<g id="icons/email">
<path id="Vector" d="M14.213 3.7381H2.78441C2.53183 3.7381 2.28958 3.83844 2.11098 4.01704C1.93237 4.19565 1.83203 4.43789 1.83203 4.69048V12.3095C1.83203 12.5621 1.93237 12.8044 2.11098 12.983C2.28958 13.1616 2.53183 13.2619 2.78441 13.2619H14.213C14.4656 13.2619 14.7078 13.1616 14.8864 12.983C15.065 12.8044 15.1654 12.5621 15.1654 12.3095V4.69048C15.1654 4.43789 15.065 4.19565 14.8864 4.01704C14.7078 3.83844 14.4656 3.7381 14.213 3.7381ZM13.1654 4.69048L8.4987 7.91905L3.83203 4.69048H13.1654ZM2.78441 12.3095V5.12381L8.22727 8.89048C8.30698 8.94578 8.40168 8.97541 8.4987 8.97541C8.59571 8.97541 8.69041 8.94578 8.77013 8.89048L14.213 5.12381V12.3095H2.78441Z" fill="black"/>
</g>
</svg>
