<svg width="16" height="17" viewBox="0 0 16 17" fill="none" xmlns="http://www.w3.org/2000/svg">
<g id="phone-call" clip-path="url(#clip0_1683_114330)">
<g id="Icon">
<path fill-rule="evenodd" clip-rule="evenodd" d="M9.37204 1.09304C9.41269 0.727102 9.7423 0.463406 10.1082 0.504059C11.6114 0.671048 13.0131 1.34419 14.0832 2.41295C15.1533 3.48172 15.8282 4.88258 15.9971 6.38554C16.0382 6.75143 15.775 7.08137 15.4091 7.12248C15.0432 7.16359 14.7132 6.90031 14.6721 6.53442C14.537 5.33206 13.9971 4.21137 13.141 3.35636C12.2849 2.50134 11.1636 1.96283 9.96102 1.82924C9.59508 1.78859 9.33139 1.45898 9.37204 1.09304ZM9.3803 3.70565C9.45081 3.34428 9.80092 3.10848 10.1623 3.17899C10.9437 3.33144 11.6618 3.71359 12.2247 4.27654C12.7877 4.83948 13.1698 5.5576 13.3223 6.33899C13.3928 6.70036 13.157 7.05047 12.7956 7.12098C12.4343 7.19148 12.0841 6.95569 12.0136 6.59431C11.912 6.07339 11.6572 5.59464 11.2819 5.21934C10.9066 4.84405 10.4279 4.58928 9.90697 4.48765C9.54559 4.41714 9.3098 4.06703 9.3803 3.70565Z" fill="#161B2C"/>
<path d="M4.66028 1.16676H2.66584C2.38824 1.16719 2.11377 1.22526 1.85987 1.33741C1.6059 1.44959 1.37804 1.61345 1.19085 1.81852C1.00367 2.02356 0.861219 2.26536 0.772587 2.52851C0.683961 2.79167 0.651096 3.07036 0.676085 3.34689C0.906998 5.52208 1.64358 7.60227 2.82719 9.42937C3.90009 11.1178 5.33578 12.5535 7.02913 13.6296C8.84276 14.8057 10.9129 15.5421 13.068 15.7763C13.3575 15.8025 13.637 15.7694 13.9008 15.6802C14.1646 15.591 14.4069 15.4476 14.6122 15.2593C14.8173 15.0711 14.9811 14.8419 15.0926 14.5867C15.2041 14.3316 15.2612 14.0559 15.26 13.7774L15.26 11.7802C15.272 11.3064 15.1035 10.8286 14.7864 10.4543C14.4692 10.0799 14.0255 9.83526 13.5398 9.76677C12.9438 9.68815 12.3643 9.54377 11.8064 9.33563C11.4501 9.20162 11.061 9.1725 10.687 9.25232L10.5483 9.28711C10.2285 9.37962 9.93585 9.55091 9.69791 9.78623L9.21797 10.2655L9.13815 10.216C7.96899 9.45509 6.97183 8.45792 6.21099 7.28876L6.16064 7.20882L6.63812 6.73163C6.90961 6.4571 7.09489 6.11384 7.17465 5.73987C7.25442 5.3659 7.2253 4.9769 7.09075 4.61897C6.88319 4.06275 6.73884 3.48326 6.66099 2.89304C6.59223 2.40637 6.35188 1.9669 5.98391 1.65045C5.61599 1.33403 5.14556 1.16217 4.66028 1.16676ZM2.66758 2.50012H4.66671C4.83499 2.49856 4.99186 2.55587 5.11452 2.66136C5.23719 2.76685 5.3173 2.91334 5.33994 3.07352C5.4301 3.7573 5.59884 4.43468 5.84212 5.08662C5.88753 5.20744 5.89724 5.3371 5.87065 5.46175C5.84406 5.58641 5.7823 5.70084 5.69268 5.79146L4.84864 6.63548C4.63643 6.84769 4.59217 7.17553 4.74052 7.43642C5.74886 9.20973 7.21716 10.678 8.99048 11.6864C9.25137 11.8348 9.57922 11.7905 9.79143 11.5783L10.6381 10.7316C10.7261 10.6446 10.8405 10.5829 10.9651 10.5563C11.0899 10.5297 11.2195 10.5394 11.3387 10.5842C11.9924 10.8281 12.6698 10.9969 13.3595 11.0878C13.5155 11.1099 13.6634 11.1914 13.7692 11.3162C13.8748 11.4409 13.931 11.6002 13.9269 11.7637L13.9267 13.7802C13.9271 13.8758 13.9081 13.9675 13.8709 14.0527C13.8337 14.1378 13.7792 14.2141 13.7108 14.2768C13.6423 14.3397 13.5615 14.3875 13.4737 14.4172C13.3858 14.4469 13.2925 14.4579 13.1999 14.4496C11.2643 14.2391 9.39326 13.5735 7.74942 12.5076C6.21609 11.5331 4.92046 10.2375 3.94938 8.70935C2.87649 7.05311 2.21076 5.17303 2.00299 3.21648C1.99568 3.13471 2.00663 3.04181 2.03618 2.95408C2.06572 2.86638 2.1132 2.78579 2.17558 2.71745C2.238 2.64907 2.31395 2.59446 2.39859 2.55707C2.48328 2.51966 2.57488 2.50028 2.66758 2.50012Z" fill="#161B2C"/>
</g>
</g>
<defs>
<clipPath id="clip0_1683_114330">
<rect width="16" height="16" fill="white" transform="translate(0 0.5)"/>
</clipPath>
</defs>
</svg>
