<svg width="1148" height="6" viewBox="0 0 1148 6" fill="none" xmlns="http://www.w3.org/2000/svg">
<path d="M0.833333 3C0.833333 4.47276 2.02724 5.66667 3.5 5.66667C4.97276 5.66667 6.16667 4.47276 6.16667 3C6.16667 1.52724 4.97276 0.333333 3.5 0.333333C2.02724 0.333333 0.833333 1.52724 0.833333 3ZM1141.83 3C1141.83 4.47276 1143.03 5.66667 1144.5 5.66667C1145.97 5.66667 1147.17 4.47276 1147.17 3C1147.17 1.52724 1145.97 0.333333 1144.5 0.333333C1143.03 0.333333 1141.83 1.52724 1141.83 3ZM3.5 3.5H1144.5V2.5H3.5V3.5Z" fill="#B2B5B7"/>
</svg>
