<svg width="15" height="15" viewBox="0 0 15 15" fill="none" xmlns="http://www.w3.org/2000/svg">
<g id="copy">
<g id="Icon">
<path fill-rule="evenodd" clip-rule="evenodd" d="M6.91732 6.3335C6.59515 6.3335 6.33398 6.59466 6.33398 6.91683V12.1668C6.33398 12.489 6.59515 12.7502 6.91732 12.7502H12.1673C12.4895 12.7502 12.7507 12.489 12.7507 12.1668V6.91683C12.7507 6.59466 12.4895 6.3335 12.1673 6.3335H6.91732ZM5.16732 6.91683C5.16732 5.95033 5.95082 5.16683 6.91732 5.16683H12.1673C13.1338 5.16683 13.9173 5.95033 13.9173 6.91683V12.1668C13.9173 13.1333 13.1338 13.9168 12.1673 13.9168H6.91732C5.95082 13.9168 5.16732 13.1333 5.16732 12.1668V6.91683Z" fill="#1953E7"/>
<path fill-rule="evenodd" clip-rule="evenodd" d="M2.83398 2.25016C2.67927 2.25016 2.5309 2.31162 2.42151 2.42102C2.31211 2.53041 2.25065 2.67879 2.25065 2.8335V8.0835C2.25065 8.23821 2.31211 8.38658 2.42151 8.49598C2.5309 8.60537 2.67928 8.66683 2.83398 8.66683H3.41732C3.73948 8.66683 4.00065 8.928 4.00065 9.25016C4.00065 9.57233 3.73948 9.8335 3.41732 9.8335H2.83398C2.36986 9.8335 1.92474 9.64912 1.59655 9.32093C1.26836 8.99274 1.08398 8.54763 1.08398 8.0835V2.8335C1.08398 2.36937 1.26836 1.92425 1.59655 1.59606C1.92474 1.26787 2.36986 1.0835 2.83398 1.0835H8.08398C8.54811 1.0835 8.99323 1.26787 9.32142 1.59606C9.64961 1.92425 9.83399 2.36937 9.83399 2.8335V3.41683C9.83399 3.739 9.57282 4.00016 9.25065 4.00016C8.92849 4.00016 8.66732 3.739 8.66732 3.41683V2.8335C8.66732 2.67879 8.60586 2.53041 8.49646 2.42102C8.38707 2.31162 8.23869 2.25016 8.08398 2.25016H2.83398Z" fill="#1953E7"/>
</g>
</g>
</svg>
