<svg width="27" height="26" viewBox="0 0 27 26" fill="none" xmlns="http://www.w3.org/2000/svg">
<g id="fluent:notepad-edit-20-filled">
<path id="Vector" d="M20.7534 13.7125L14.4744 19.9915C14.1084 20.3573 13.8487 20.8156 13.723 21.3175L13.2355 23.2649C13.1874 23.4586 13.1903 23.6614 13.2437 23.8537C13.2972 24.0459 13.3995 24.2211 13.5407 24.3621C13.6818 24.5032 13.8571 24.6053 14.0494 24.6586C14.2417 24.7119 14.4446 24.7146 14.6382 24.6663L16.5856 24.1801C17.0876 24.0545 17.5459 23.7948 17.9116 23.4287L24.1906 17.1497C24.6406 16.6925 24.8916 16.076 24.889 15.4345C24.8864 14.7931 24.6304 14.1786 24.1767 13.7251C23.723 13.2716 23.1085 13.0158 22.467 13.0134C21.8255 13.0111 21.2091 13.2623 20.7521 13.7125H20.7534ZM9.30039 3.2501C9.30039 3.07771 9.23191 2.91238 9.11001 2.79048C8.98811 2.66858 8.82278 2.6001 8.65039 2.6001C8.478 2.6001 8.31267 2.66858 8.19077 2.79048C8.06887 2.91238 8.00039 3.07771 8.00039 3.2501V3.9001H7.35039C6.83322 3.9001 6.33723 4.10554 5.97153 4.47124C5.60584 4.83694 5.40039 5.33293 5.40039 5.8501V21.4501C5.40039 21.9673 5.60584 22.4633 5.97153 22.829C6.33723 23.1947 6.83322 23.4001 7.35039 23.4001H11.9043C11.9134 23.2519 11.9368 23.1011 11.9745 22.949L12.462 21.0016C12.644 20.2709 13.0215 19.6035 13.554 19.0711L19.833 12.7921C20.1679 12.4563 20.5643 12.188 21.0004 12.0017V5.8501C21.0004 5.33293 20.7949 4.83694 20.4292 4.47124C20.0636 4.10554 19.5676 3.9001 19.0504 3.9001H18.4004V3.2501C18.4004 3.07771 18.3319 2.91238 18.21 2.79048C18.0881 2.66858 17.9228 2.6001 17.7504 2.6001C17.578 2.6001 17.4127 2.66858 17.2908 2.79048C17.1689 2.91238 17.1004 3.07771 17.1004 3.2501V3.9001H13.8504V3.2501C13.8504 3.07771 13.7819 2.91238 13.66 2.79048C13.5381 2.66858 13.3728 2.6001 13.2004 2.6001C13.028 2.6001 12.8627 2.66858 12.7408 2.79048C12.6189 2.91238 12.5504 3.07771 12.5504 3.2501V3.9001H9.30039V3.2501ZM9.95039 9.1001H16.4504C16.6228 9.1001 16.7881 9.16858 16.91 9.29048C17.0319 9.41238 17.1004 9.57771 17.1004 9.7501C17.1004 9.92249 17.0319 10.0878 16.91 10.2097C16.7881 10.3316 16.6228 10.4001 16.4504 10.4001H9.95039C9.778 10.4001 9.61267 10.3316 9.49077 10.2097C9.36887 10.0878 9.30039 9.92249 9.30039 9.7501C9.30039 9.57771 9.36887 9.41238 9.49077 9.29048C9.61267 9.16858 9.778 9.1001 9.95039 9.1001ZM17.1004 13.6501C17.1004 13.8225 17.0319 13.9878 16.91 14.1097C16.7881 14.2316 16.6228 14.3001 16.4504 14.3001H9.95039C9.778 14.3001 9.61267 14.2316 9.49077 14.1097C9.36887 13.9878 9.30039 13.8225 9.30039 13.6501C9.30039 13.4777 9.36887 13.3124 9.49077 13.1905C9.61267 13.0686 9.778 13.0001 9.95039 13.0001H16.4504C16.6228 13.0001 16.7881 13.0686 16.91 13.1905C17.0319 13.3124 17.1004 13.4777 17.1004 13.6501ZM9.95039 16.9001H12.5504C12.7228 16.9001 12.8881 16.9686 13.01 17.0905C13.1319 17.2124 13.2004 17.3777 13.2004 17.5501C13.2004 17.7225 13.1319 17.8878 13.01 18.0097C12.8881 18.1316 12.7228 18.2001 12.5504 18.2001H9.95039C9.778 18.2001 9.61267 18.1316 9.49077 18.0097C9.36887 17.8878 9.30039 17.7225 9.30039 17.5501C9.30039 17.3777 9.36887 17.2124 9.49077 17.0905C9.61267 16.9686 9.778 16.9001 9.95039 16.9001Z" fill="#424659"/>
</g>
</svg>
