<svg width="24" height="18" viewBox="0 0 24 18" fill="none" xmlns="http://www.w3.org/2000/svg">
<path id="Vector" d="M14.9291 17.6898C11.9368 17.6898 10.2033 17.586 9.7786 17.3842C8.79462 16.9134 8.70814 15.914 8.82153 15.5027C8.96566 14.9781 8.48136 14.5226 8.26612 14.3516C8.0624 14.1882 7.78566 13.9191 7.62999 13.5559C7.43781 13.1062 7.4013 12.6911 7.52237 12.3202C7.66266 11.8935 7.52814 11.4131 7.18797 11.1229C6.73634 10.7385 6.27318 10.0371 6.62296 8.87242C6.64986 8.78402 6.63256 8.68985 6.57875 8.61682C6.52494 8.54379 6.43846 8.50151 6.34813 8.50151L2.58327 8.5092C2.08168 8.5092 0.980469 8.08447 0.980469 6.81991C0.980469 5.74561 2.11819 5.50346 2.51601 5.50346L13.4839 5.4804C13.6415 5.4804 13.7683 5.35356 13.7722 5.19597C13.7741 5.03838 13.6511 4.90769 13.4935 4.90385C13.4877 4.90193 13.1495 4.8558 11.8542 4.11013C10.5646 3.36446 9.79205 2.61879 10.2245 1.40036C10.4455 0.779605 11.1469 0.712341 11.4371 0.712341C11.8061 0.712341 12.1136 0.806511 12.2443 0.892993C13.2763 1.58101 14.2757 1.98651 15.3346 2.417C16.4531 2.87055 17.612 3.33948 18.9265 4.19469C19.1706 4.35421 19.3877 4.55023 19.5665 4.77893C20.4063 5.84554 21.4979 6.56046 22.7221 6.8449L22.97 6.90255C23.1853 6.95252 23.339 7.14278 23.3409 7.36571L23.4063 14.9934C23.4082 15.2106 23.266 15.4028 23.0565 15.4624C23.0392 15.4662 23.0238 15.4739 23.0085 15.4816C22.9623 15.5027 18.4576 17.684 15.2962 17.6898H14.9291Z" fill="url(#paint0_linear_1337_68852)"/>
<defs>
<linearGradient id="paint0_linear_1337_68852" x1="0.998063" y1="9.23264" x2="23.4066" y2="9.18568" gradientUnits="userSpaceOnUse">
<stop offset="0.1277" stop-color="#FFB300"/>
<stop offset="0.6467" stop-color="#FFCA28"/>
</linearGradient>
</defs>
</svg>
