<svg width="24" height="18" viewBox="0 0 24 18" fill="none" xmlns="http://www.w3.org/2000/svg">
<path id="Vector" d="M9.08279 17.6898C5.91946 17.6821 1.41662 15.5027 1.37049 15.4797C1.35512 15.472 1.33974 15.4662 1.32245 15.4604C1.11489 15.4009 0.970753 15.2087 0.972675 14.9934L1.03802 7.36379C1.04186 7.1447 1.19561 6.95444 1.41085 6.90255L1.65877 6.8449C2.88297 6.56046 3.97265 5.84554 4.81441 4.77893C4.99506 4.55023 5.21031 4.35421 5.45438 4.19469C6.77083 3.3414 7.92777 2.87055 9.04628 2.417C10.1052 1.98844 11.1046 1.58293 12.1366 0.892993C12.2673 0.806511 12.5748 0.712341 12.9437 0.712341C13.2359 0.712341 13.9373 0.779605 14.1564 1.40036C14.5888 2.61879 13.8182 3.36446 12.5267 4.11013C11.2333 4.85772 10.8932 4.90385 10.8797 4.90577C10.7221 4.91154 10.603 5.0403 10.6049 5.19789C10.6068 5.35548 10.7394 5.4804 10.897 5.48232L21.8649 5.50538C22.2646 5.50538 23.4004 5.74753 23.4004 6.82183C23.4004 8.0864 22.2992 8.51112 21.7976 8.51112C21.7976 8.51112 18.0347 8.50343 18.0327 8.50343C17.9424 8.50343 17.8559 8.54571 17.8021 8.61874C17.7483 8.69177 17.731 8.78594 17.7579 8.87435C18.1077 10.039 17.6445 10.7404 17.1929 11.1248C16.8527 11.4131 16.7201 11.8955 16.8585 12.3221C16.9796 12.6911 16.9431 13.1081 16.7509 13.5578C16.5952 13.9211 16.3204 14.1901 16.1148 14.3535C15.8995 14.5245 15.4152 14.98 15.5594 15.5047C15.6727 15.9159 15.5863 16.9153 14.6023 17.3861C14.1776 17.5898 12.4441 17.6917 9.45178 17.6917L9.08279 17.6898Z" fill="url(#paint0_linear_1337_68843)"/>
<defs>
<linearGradient id="paint0_linear_1337_68843" x1="23.3841" y1="9.23432" x2="0.975617" y2="9.18737" gradientUnits="userSpaceOnUse">
<stop offset="0.1277" stop-color="#FFB300"/>
<stop offset="0.6467" stop-color="#FFCA28"/>
</linearGradient>
</defs>
</svg>
