<svg width="22" height="22" viewBox="0 0 22 22" fill="none" xmlns="http://www.w3.org/2000/svg">
<g id="Group">
<path id="Vector" d="M9.91601 5.58342H12.0827V7.75008H9.91601V5.58342ZM9.91601 9.91675H12.0827V16.4167H9.91601V9.91675ZM10.9993 0.166748C5.01935 0.166748 0.166016 5.02008 0.166016 11.0001C0.166016 16.9801 5.01935 21.8334 10.9993 21.8334C16.9793 21.8334 21.8327 16.9801 21.8327 11.0001C21.8327 5.02008 16.9793 0.166748 10.9993 0.166748ZM10.9993 19.6667C6.22185 19.6667 2.33268 15.7776 2.33268 11.0001C2.33268 6.22258 6.22185 2.33341 10.9993 2.33341C15.7768 2.33341 19.666 6.22258 19.666 11.0001C19.666 15.7776 15.7768 19.6667 10.9993 19.6667Z" fill="#161B2C"/>
</g>
</svg>
