<svg width="26" height="26" viewBox="0 0 26 26" fill="none" xmlns="http://www.w3.org/2000/svg">
<g id="Icon 1" opacity="0.6" clip-path="url(#clip0_2674_101907)">
<g id="vector">
<path d="M13.0006 16.2499C14.7956 16.2499 16.2506 14.7948 16.2506 12.9999C16.2506 11.205 14.7956 9.74992 13.0006 9.74992C11.2057 9.74992 9.75065 11.205 9.75065 12.9999C9.75065 14.7948 11.2057 16.2499 13.0006 16.2499Z" stroke="#161B2C" stroke-width="1.5" stroke-linecap="round" stroke-linejoin="round"/>
<path d="M21.0173 16.2499C20.8731 16.5767 20.8301 16.9391 20.8938 17.2906C20.9575 17.642 21.1251 17.9663 21.3748 18.2216L21.4398 18.2866C21.6413 18.4878 21.8011 18.7268 21.9101 18.9898C22.0191 19.2528 22.0753 19.5348 22.0753 19.8195C22.0753 20.1042 22.0191 20.3862 21.9101 20.6492C21.8011 20.9122 21.6413 21.1512 21.4398 21.3524C21.2386 21.5539 20.9996 21.7137 20.7366 21.8227C20.4736 21.9317 20.1916 21.9879 19.9069 21.9879C19.6222 21.9879 19.3402 21.9317 19.0772 21.8227C18.8142 21.7137 18.5752 21.5539 18.374 21.3524L18.309 21.2874C18.0537 21.0377 17.7294 20.8701 17.378 20.8064C17.0265 20.7427 16.6641 20.7857 16.3373 20.9299C16.0169 21.0672 15.7436 21.2953 15.5511 21.5859C15.3587 21.8766 15.2554 22.2171 15.254 22.5658V22.7499C15.254 23.3246 15.0257 23.8757 14.6194 24.282C14.2131 24.6883 13.662 24.9166 13.0873 24.9166C12.5127 24.9166 11.9616 24.6883 11.5553 24.282C11.1489 23.8757 10.9206 23.3246 10.9206 22.7499V22.6524C10.9123 22.2938 10.7962 21.9461 10.5875 21.6543C10.3789 21.3626 10.0873 21.1404 9.75065 21.0166C9.4239 20.8724 9.06144 20.8294 8.71001 20.8931C8.35858 20.9568 8.0343 21.1243 7.77898 21.3741L7.71398 21.4391C7.51276 21.6405 7.2738 21.8003 7.01077 21.9094C6.74774 22.0184 6.4658 22.0745 6.18107 22.0745C5.89633 22.0745 5.61439 22.0184 5.35136 21.9094C5.08833 21.8003 4.84938 21.6405 4.64815 21.4391C4.4467 21.2379 4.28689 20.9989 4.17785 20.7359C4.06882 20.4728 4.0127 20.1909 4.0127 19.9062C4.0127 19.6214 4.06882 19.3395 4.17785 19.0765C4.28689 18.8134 4.4467 18.5745 4.64815 18.3732L4.71315 18.3083C4.9629 18.0529 5.13043 17.7286 5.19416 17.3772C5.25788 17.0258 5.21486 16.6633 5.07065 16.3366C4.93332 16.0162 4.7053 15.7429 4.41465 15.5504C4.12401 15.3579 3.78342 15.2546 3.43482 15.2533H3.25065C2.67602 15.2533 2.12491 15.025 1.71859 14.6186C1.31226 14.2123 1.08398 13.6612 1.08398 13.0866C1.08398 12.5119 1.31226 11.9608 1.71859 11.5545C2.12491 11.1482 2.67602 10.9199 3.25065 10.9199H3.34815C3.70673 10.9115 4.05449 10.7955 4.34622 10.5868C4.63796 10.3781 4.86018 10.0865 4.98398 9.74992C5.12819 9.42317 5.17121 9.06071 5.10749 8.70928C5.04377 8.35785 4.87623 8.03357 4.62648 7.77825L4.56148 7.71325C4.36003 7.51203 4.20022 7.27307 4.09119 7.01004C3.98215 6.74701 3.92603 6.46507 3.92603 6.18033C3.92603 5.8956 3.98215 5.61366 4.09119 5.35063C4.20022 5.0876 4.36003 4.84864 4.56148 4.64742C4.76271 4.44597 5.00167 4.28616 5.2647 4.17712C5.52773 4.06809 5.80967 4.01196 6.0944 4.01196C6.37913 4.01196 6.66107 4.06809 6.9241 4.17712C7.18713 4.28616 7.42609 4.44597 7.62732 4.64742L7.69232 4.71242C7.94764 4.96217 8.27192 5.1297 8.62335 5.19342C8.97477 5.25714 9.33723 5.21413 9.66398 5.06992H9.75065C10.0711 4.93259 10.3443 4.70457 10.5368 4.41392C10.7293 4.12327 10.8326 3.78269 10.834 3.43409V3.24992C10.834 2.67528 11.0623 2.12418 11.4686 1.71785C11.8749 1.31153 12.426 1.08325 13.0006 1.08325C13.5753 1.08325 14.1264 1.31153 14.5327 1.71785C14.939 2.12418 15.1673 2.67528 15.1673 3.24992V3.34742C15.1687 3.69602 15.272 4.03661 15.4645 4.32726C15.657 4.6179 15.9302 4.84593 16.2506 4.98325C16.5774 5.12746 16.9399 5.17048 17.2913 5.10676C17.6427 5.04304 17.967 4.8755 18.2223 4.62575L18.2873 4.56075C18.4885 4.3593 18.7275 4.19949 18.9905 4.09046C19.2536 3.98142 19.5355 3.9253 19.8202 3.9253C20.105 3.9253 20.3869 3.98142 20.6499 4.09046C20.913 4.19949 21.1519 4.3593 21.3531 4.56075C21.5546 4.76198 21.7144 5.00094 21.8234 5.26396C21.9325 5.52699 21.9886 5.80893 21.9886 6.09367C21.9886 6.3784 21.9325 6.66034 21.8234 6.92337C21.7144 7.1864 21.5546 7.42536 21.3531 7.62658L21.2881 7.69158C21.0384 7.9469 20.8709 8.27119 20.8071 8.62261C20.7434 8.97404 20.7864 9.3365 20.9306 9.66325V9.74992C21.068 10.0703 21.296 10.3436 21.5866 10.5361C21.8773 10.7286 22.2179 10.8319 22.5665 10.8333H22.7506C23.3253 10.8333 23.8764 11.0615 24.2827 11.4679C24.689 11.8742 24.9173 12.4253 24.9173 12.9999C24.9173 13.5746 24.689 14.1257 24.2827 14.532C23.8764 14.9383 23.3253 15.1666 22.7506 15.1666H22.6531C22.3045 15.168 21.964 15.2713 21.6733 15.4638C21.3827 15.6562 21.1546 15.9295 21.0173 16.2499Z" stroke="#161B2C" stroke-width="1.5" stroke-linecap="round" stroke-linejoin="round"/>
</g>
</g>
<defs>
<clipPath id="clip0_2674_101907">
<rect width="26" height="26" fill="white"/>
</clipPath>
</defs>
</svg>
