<svg width="20" height="20" viewBox="0 0 20 20" fill="none" xmlns="http://www.w3.org/2000/svg">
<g id="book-open">
<g id="Icon">
<path fill-rule="evenodd" clip-rule="evenodd" d="M1.0625 3.29775C1.0625 2.86283 1.41508 2.51025 1.85 2.51025H6.575C7.61929 2.51025 8.62081 2.9251 9.35923 3.66352C10.0977 4.40195 10.5125 5.40346 10.5125 6.44775V17.4728C10.5125 17.9077 10.1599 18.2603 9.725 18.2603C9.29008 18.2603 8.9375 17.9077 8.9375 17.4728C8.9375 17.055 8.77156 16.6544 8.47619 16.3591C8.18082 16.0637 7.78022 15.8978 7.3625 15.8978H1.85C1.41508 15.8978 1.0625 15.5452 1.0625 15.1103V3.29775ZM8.9375 14.7448V6.44775C8.9375 5.82118 8.68859 5.22027 8.24554 4.77721C7.80248 4.33416 7.20157 4.08525 6.575 4.08525H2.6375V14.3228H7.3625C7.92023 14.3228 8.46271 14.4707 8.9375 14.7448Z" fill="#161B2C"/>
<path fill-rule="evenodd" clip-rule="evenodd" d="M10.0908 3.66352C10.8292 2.9251 11.8307 2.51025 12.875 2.51025H17.6C18.0349 2.51025 18.3875 2.86283 18.3875 3.29775V15.1103C18.3875 15.5452 18.0349 15.8978 17.6 15.8978H12.0875C11.6698 15.8978 11.2692 16.0637 10.9738 16.3591C10.6784 16.6544 10.5125 17.055 10.5125 17.4728C10.5125 17.9077 10.1599 18.2603 9.725 18.2603C9.29008 18.2603 8.9375 17.9077 8.9375 17.4728V6.44775C8.9375 5.40346 9.35234 4.40195 10.0908 3.66352ZM10.5125 14.7448C10.9873 14.4707 11.5298 14.3228 12.0875 14.3228H16.8125V4.08525H12.875C12.2484 4.08525 11.6475 4.33416 11.2045 4.77721C10.7614 5.22027 10.5125 5.82118 10.5125 6.44775V14.7448Z" fill="#161B2C"/>
</g>
</g>
</svg>
