<svg width="20" height="20" viewBox="0 0 20 20" fill="none" xmlns="http://www.w3.org/2000/svg">
<g id="file-plus" clip-path="url(#clip0_1225_112528)">
<path id="Icon" fill-rule="evenodd" clip-rule="evenodd" d="M5.175 1.72276C4.54843 1.72276 3.94751 1.97166 3.50446 2.41472C3.06141 2.85777 2.8125 3.45868 2.8125 4.08526V16.6853C2.8125 17.3118 3.06141 17.9127 3.50446 18.3558C3.94751 18.7988 4.54843 19.0478 5.175 19.0478H14.625C15.2516 19.0478 15.8525 18.7988 16.2955 18.3558C16.7386 17.9127 16.9875 17.3118 16.9875 16.6853V8.02276C16.9875 7.8139 16.9045 7.61359 16.7568 7.46591L11.2443 1.95341C11.0967 1.80572 10.8964 1.72276 10.6875 1.72276H5.175ZM4.61815 3.52841C4.76584 3.38072 4.96614 3.29776 5.175 3.29776H9.9V8.02276C9.9 8.45768 10.2526 8.81026 10.6875 8.81026H15.4125V16.6853C15.4125 16.8941 15.3295 17.0944 15.1818 17.2421C15.0342 17.3898 14.8339 17.4728 14.625 17.4728H5.175C4.96614 17.4728 4.76584 17.3898 4.61815 17.2421C4.47047 17.0944 4.3875 16.8941 4.3875 16.6853V4.08526C4.3875 3.8764 4.47047 3.67609 4.61815 3.52841ZM14.2988 7.23526L11.475 4.41145V7.23526H14.2988ZM9.9 9.59775C10.3349 9.59775 10.6875 9.95033 10.6875 10.3853V11.9603H12.2625C12.6974 11.9603 13.05 12.3128 13.05 12.7478C13.05 13.1827 12.6974 13.5353 12.2625 13.5353H10.6875V15.1103C10.6875 15.5452 10.3349 15.8978 9.9 15.8978C9.46508 15.8978 9.1125 15.5452 9.1125 15.1103V13.5353H7.5375C7.10258 13.5353 6.75 13.1827 6.75 12.7478C6.75 12.3128 7.10258 11.9603 7.5375 11.9603H9.1125V10.3853C9.1125 9.95033 9.46508 9.59775 9.9 9.59775Z" fill="#161B2C"/>
</g>
<defs>
<clipPath id="clip0_1225_112528">
<rect width="18.9" height="18.9" fill="white" transform="translate(0.449219 0.935253)"/>
</clipPath>
</defs>
</svg>
