<svg width="20" height="20" viewBox="0 0 20 20" fill="none" xmlns="http://www.w3.org/2000/svg">
<g id="folder-plus">
<g id="Icon">
<path fill-rule="evenodd" clip-rule="evenodd" d="M3.55 4.08525C3.34114 4.08525 3.14084 4.16822 2.99315 4.31591C2.84547 4.46359 2.7625 4.6639 2.7625 4.87275V15.8978C2.7625 16.1066 2.84547 16.3069 2.99315 16.4546C3.14084 16.6023 3.34114 16.6853 3.55 16.6853H16.15C16.3589 16.6853 16.5592 16.6023 16.7068 16.4546C16.8545 16.3069 16.9375 16.1066 16.9375 15.8978V7.23525C16.9375 7.0264 16.8545 6.82609 16.7068 6.67841C16.5592 6.53072 16.3589 6.44775 16.15 6.44775H9.0625C8.7992 6.44775 8.55331 6.31616 8.40726 6.09708L7.06604 4.08525H3.55ZM1.87946 3.20221C2.32251 2.75916 2.92343 2.51025 3.55 2.51025H7.4875C7.7508 2.51025 7.99669 2.64185 8.14274 2.86093L9.48396 4.87275H16.15C16.7766 4.87275 17.3775 5.12166 17.8205 5.56471C18.2636 6.00777 18.5125 6.60868 18.5125 7.23525V15.8978C18.5125 16.5243 18.2636 17.1252 17.8205 17.5683C17.3775 18.0113 16.7766 18.2603 16.15 18.2603H3.55C2.92343 18.2603 2.32251 18.0113 1.87946 17.5683C1.43641 17.1252 1.1875 16.5243 1.1875 15.8978V4.87275C1.1875 4.24618 1.43641 3.64527 1.87946 3.20221Z" fill="#161B2C"/>
<path fill-rule="evenodd" clip-rule="evenodd" d="M10.6375 9.59775C10.6375 9.16283 10.2849 8.81025 9.85 8.81025C9.41508 8.81025 9.0625 9.16283 9.0625 9.59775V11.1728H7.4875C7.05258 11.1728 6.7 11.5253 6.7 11.9603C6.7 12.3952 7.05258 12.7478 7.4875 12.7478H9.0625V14.3228C9.0625 14.7577 9.41508 15.1103 9.85 15.1103C10.2849 15.1103 10.6375 14.7577 10.6375 14.3228V12.7478H12.2125C12.6474 12.7478 13 12.3952 13 11.9603C13 11.5253 12.6474 11.1728 12.2125 11.1728H10.6375V9.59775ZM10.6375 11.1728H9.0625V12.7478H10.6375V11.1728Z" fill="#161B2C"/>
<path d="M10.6375 11.1728H9.0625V12.7478H10.6375V11.1728Z" fill="#161B2C"/>
</g>
</g>
</svg>
