<svg width="20" height="20" viewBox="0 0 20 20" fill="none" xmlns="http://www.w3.org/2000/svg">
<g id="material-symbols:calendar-month-outline-sharp">
<path id="Vector" d="M9.4875 11.5176V9.94263H11.0625V11.5176H9.4875ZM6.3375 11.5176V9.94263H7.9125V11.5176H6.3375ZM12.6375 11.5176V9.94263H14.2125V11.5176H12.6375ZM9.4875 14.6676V13.0926H11.0625V14.6676H9.4875ZM6.3375 14.6676V13.0926H7.9125V14.6676H6.3375ZM12.6375 14.6676V13.0926H14.2125V14.6676H12.6375ZM3.1875 17.8176V3.64263H5.55V2.06763H7.125V3.64263H13.425V2.06763H15V3.64263H17.3625V17.8176H3.1875ZM4.7625 16.2426H15.7875V8.36763H4.7625V16.2426ZM4.7625 6.79263H15.7875V5.21763H4.7625V6.79263Z" fill="#161B2C"/>
</g>
</svg>
