<svg width="20" height="20" viewBox="0 0 20 20" fill="none" xmlns="http://www.w3.org/2000/svg">
<g id="mdi:medal">
<path id="Vector" d="M16.5219 2.06763H3.92188V3.64263L8.49725 7.07613C7.10868 7.534 5.95873 8.52448 5.30013 9.82986C4.64153 11.1352 4.52818 12.6487 4.985 14.0376C5.21101 14.7257 5.57044 15.3624 6.04276 15.9114C6.51507 16.4604 7.09098 16.9109 7.73756 17.2371C8.38413 17.5633 9.08867 17.7588 9.81089 17.8125C10.5331 17.8662 11.2588 17.7769 11.9465 17.5499C13.0494 17.1874 14.0097 16.4859 14.6904 15.5456C15.3712 14.6052 15.7377 13.4739 15.7377 12.313C15.7377 11.1521 15.3712 10.0208 14.6904 9.08042C14.0097 8.14006 13.0494 7.43862 11.9465 7.07613L16.5219 3.64263V2.06763ZM12.5371 15.8489L10.2219 14.4944L7.90663 15.8489L8.52087 13.2265L6.48125 11.4625L9.16662 11.2341L10.2219 8.76138L11.2771 11.2341L13.9625 11.4625L11.9229 13.2265L12.5371 15.8489Z" fill="#161B2C"/>
</g>
</svg>
