<svg width="20" height="20" viewBox="0 0 20 20" fill="none" xmlns="http://www.w3.org/2000/svg">
<g id="ep:pie-chart" clip-path="url(#clip0_1225_112553)">
<path id="Vector" d="M9.14219 1.75657V2.95317C7.39386 3.25409 5.82186 4.19952 4.73653 5.60282C3.6512 7.00612 3.1314 8.76533 3.27975 10.5332C3.42809 12.301 4.2338 13.949 5.53782 15.1518C6.84184 16.3546 8.54941 17.0248 10.3234 17.0301C11.9984 17.0299 13.6192 16.4367 14.8986 15.3556C16.178 14.2745 17.0333 12.7754 17.3129 11.1239H18.5083C18.2038 13.1882 17.1303 15.0611 15.503 16.3672C13.8756 17.6733 11.8148 18.3161 9.73348 18.1667C7.65219 18.0173 5.70428 17.0867 4.28022 15.5615C2.85616 14.0363 2.0612 12.0293 2.05469 9.94263C2.05467 7.95405 2.77109 6.03203 4.07273 4.52864C5.37437 3.02525 7.17408 2.04114 9.14219 1.75657Z" fill="#161B2C"/>
<path id="Vector_2" d="M11.5055 2.28813V8.76138H17.9787C17.839 7.09131 17.1122 5.52473 15.9272 4.33969C14.7421 3.15465 13.1755 2.4278 11.5055 2.28813ZM10.3242 1.67388V1.10452C11.5066 1.01986 12.6934 1.19043 13.804 1.60465C14.9147 2.01887 15.9234 2.66706 16.7616 3.50527C17.5998 4.34348 18.248 5.35212 18.6622 6.4628C19.0764 7.57348 19.247 8.76024 19.1623 9.94263H10.3242V1.67388Z" fill="#161B2C"/>
</g>
<defs>
<clipPath id="clip0_1225_112553">
<rect width="18.9" height="18.9" fill="white" transform="translate(0.875 0.49263)"/>
</clipPath>
</defs>
</svg>
