<svg width="20" height="20" viewBox="0 0 20 20" fill="none" xmlns="http://www.w3.org/2000/svg">
<g id="users" clip-path="url(#clip0_1225_112544)">
<g id="Icon">
<path fill-rule="evenodd" clip-rule="evenodd" d="M1.97749 13.1135C2.71591 12.3751 3.71743 11.9603 4.76172 11.9603H11.0617C12.106 11.9603 13.1075 12.3751 13.846 13.1135C14.5844 13.8519 14.9992 14.8535 14.9992 15.8978V17.4728C14.9992 17.9077 14.6466 18.2603 14.2117 18.2603C13.7768 18.2603 13.4242 17.9077 13.4242 17.4728V15.8978C13.4242 15.2712 13.1753 14.6703 12.7323 14.2272C12.2892 13.7842 11.6883 13.5353 11.0617 13.5353H4.76172C4.13514 13.5353 3.53423 13.7842 3.09118 14.2272C2.64812 14.6703 2.39922 15.2712 2.39922 15.8978V17.4728C2.39922 17.9077 2.04664 18.2603 1.61172 18.2603C1.17679 18.2603 0.824219 17.9077 0.824219 17.4728V15.8978C0.824219 14.8535 1.23906 13.8519 1.97749 13.1135Z" fill="#161B2C"/>
<path fill-rule="evenodd" clip-rule="evenodd" d="M7.91172 4.08525C6.60695 4.08525 5.54922 5.14298 5.54922 6.44775C5.54922 7.75253 6.60695 8.81025 7.91172 8.81025C9.21649 8.81025 10.2742 7.75253 10.2742 6.44775C10.2742 5.14298 9.21649 4.08525 7.91172 4.08525ZM3.97422 6.44775C3.97422 4.27313 5.7371 2.51025 7.91172 2.51025C10.0863 2.51025 11.8492 4.27313 11.8492 6.44775C11.8492 8.62238 10.0863 10.3853 7.91172 10.3853C5.7371 10.3853 3.97422 8.62238 3.97422 6.44775Z" fill="#161B2C"/>
<path fill-rule="evenodd" clip-rule="evenodd" d="M15.8117 12.6533C15.9205 12.2321 16.35 11.9789 16.7711 12.0876C17.6158 12.3057 18.3642 12.7982 18.8987 13.4877C19.4332 14.1772 19.7236 15.0247 19.7242 15.8972V17.4728C19.7242 17.9077 19.3716 18.2603 18.9367 18.2603C18.5018 18.2603 18.1492 17.9077 18.1492 17.4728V15.8983C18.1488 15.375 17.9746 14.8663 17.6539 14.4527C17.3332 14.039 16.8842 13.7435 16.3773 13.6126C15.9562 13.5039 15.703 13.0744 15.8117 12.6533Z" fill="#161B2C"/>
<path fill-rule="evenodd" clip-rule="evenodd" d="M12.6613 3.2048C12.7692 2.78347 13.1982 2.52936 13.6195 2.63724C14.4665 2.8541 15.2172 3.34668 15.7533 4.03732C16.2894 4.72797 16.5804 5.5774 16.5804 6.45169C16.5804 7.32598 16.2894 8.17541 15.7533 8.86606C15.2172 9.5567 14.4665 10.0493 13.6195 10.2661C13.1982 10.374 12.7692 10.1199 12.6613 9.69858C12.5534 9.27725 12.8076 8.84824 13.2289 8.74036C13.7371 8.61025 14.1875 8.3147 14.5091 7.90031C14.8308 7.48592 15.0054 6.97627 15.0054 6.45169C15.0054 5.92712 14.8308 5.41746 14.5091 5.00307C14.1875 4.58868 13.7371 4.29313 13.2289 4.16302C12.8076 4.05514 12.5534 3.62613 12.6613 3.2048Z" fill="#161B2C"/>
</g>
</g>
<defs>
<clipPath id="clip0_1225_112544">
<rect width="18.9" height="18.9" fill="white" transform="translate(0.824219 0.935253)"/>
</clipPath>
</defs>
</svg>
