<svg width="20" height="20" viewBox="0 0 20 20" fill="none" xmlns="http://www.w3.org/2000/svg">
<g id="user">
<g id="Icon">
<path fill-rule="evenodd" clip-rule="evenodd" d="M4.54856 12.8407C5.20494 12.1761 6.09518 11.8028 7.02344 11.8028H12.6234C13.5517 11.8028 14.4419 12.1761 15.0983 12.8407C15.7547 13.5053 16.1234 14.4066 16.1234 15.3465V16.764C16.1234 17.1554 15.81 17.4728 15.4234 17.4728C15.0368 17.4728 14.7234 17.1554 14.7234 16.764V15.3465C14.7234 14.7826 14.5022 14.2418 14.1084 13.843C13.7145 13.4443 13.1804 13.2203 12.6234 13.2203H7.02344C6.46648 13.2203 5.93234 13.4443 5.53851 13.843C5.14469 14.2418 4.92344 14.7826 4.92344 15.3465V16.764C4.92344 17.1554 4.61004 17.4728 4.22344 17.4728C3.83684 17.4728 3.52344 17.1554 3.52344 16.764V15.3465C3.52344 14.4066 3.89219 13.5053 4.54856 12.8407Z" fill="#161B2C"/>
<path fill-rule="evenodd" clip-rule="evenodd" d="M9.82344 4.71525C8.66364 4.71525 7.72344 5.66721 7.72344 6.8415C7.72344 8.0158 8.66364 8.96775 9.82344 8.96775C10.9832 8.96775 11.9234 8.0158 11.9234 6.8415C11.9234 5.66721 10.9832 4.71525 9.82344 4.71525ZM6.32344 6.8415C6.32344 4.88435 7.89044 3.29775 9.82344 3.29775C11.7564 3.29775 13.3234 4.88435 13.3234 6.8415C13.3234 8.79866 11.7564 10.3853 9.82344 10.3853C7.89044 10.3853 6.32344 8.79866 6.32344 6.8415Z" fill="#161B2C"/>
</g>
</g>
</svg>
