<svg width="20" height="19" viewBox="0 0 20 19" fill="none" xmlns="http://www.w3.org/2000/svg">
<g id="book">
<g id="Icon">
<path fill-rule="evenodd" clip-rule="evenodd" d="M7.17344 12.5068C6.96458 12.5068 6.76428 12.586 6.61659 12.727C6.46891 12.8679 6.38594 13.0591 6.38594 13.2585C6.38594 13.5353 6.15089 13.7596 5.86094 13.7596C5.57099 13.7596 5.33594 13.5353 5.33594 13.2585C5.33594 12.7933 5.52953 12.3472 5.87413 12.0183C6.21873 11.6893 6.6861 11.5045 7.17344 11.5045H14.2609C14.5509 11.5045 14.7859 11.7289 14.7859 12.0057C14.7859 12.2824 14.5509 12.5068 14.2609 12.5068H7.17344Z" fill="#79BDF3"/>
<path fill-rule="evenodd" clip-rule="evenodd" d="M7.17344 4.98976C6.96458 4.98976 6.76428 5.06896 6.61659 5.20993C6.46891 5.3509 6.38594 5.5421 6.38594 5.74146V13.2585C6.38594 13.4579 6.46891 13.6491 6.61659 13.79C6.76428 13.931 6.96458 14.0102 7.17344 14.0102H13.7359V4.98976H7.17344ZM5.87413 4.50122C6.21873 4.17228 6.6861 3.98749 7.17344 3.98749H14.2609C14.5509 3.98749 14.7859 4.21185 14.7859 4.48862V14.5114C14.7859 14.7881 14.5509 15.0125 14.2609 15.0125H7.17344C6.6861 15.0125 6.21873 14.8277 5.87413 14.4988C5.52953 14.1698 5.33594 13.7237 5.33594 13.2585V5.74146C5.33594 5.27628 5.52953 4.83015 5.87413 4.50122Z" fill="#79BDF3"/>
</g>
</g>
</svg>
