<svg width="20" height="19" viewBox="0 0 20 19" fill="none" xmlns="http://www.w3.org/2000/svg">
<g id="material-symbols:calendar-month-outline-sharp">
<path id="Vector" d="M9.4875 11.075V9.5H11.0625V11.075H9.4875ZM6.3375 11.075V9.5H7.9125V11.075H6.3375ZM12.6375 11.075V9.5H14.2125V11.075H12.6375ZM9.4875 14.225V12.65H11.0625V14.225H9.4875ZM6.3375 14.225V12.65H7.9125V14.225H6.3375ZM12.6375 14.225V12.65H14.2125V14.225H12.6375ZM3.1875 17.375V3.2H5.55V1.625H7.125V3.2H13.425V1.625H15V3.2H17.3625V17.375H3.1875ZM4.7625 15.8H15.7875V7.925H4.7625V15.8ZM4.7625 6.35H15.7875V4.775H4.7625V6.35Z" fill="#B9A80F"/>
</g>
</svg>
