<svg width="20" height="19" viewBox="0 0 20 19" fill="none" xmlns="http://www.w3.org/2000/svg">
<g id="book-open">
<g id="Icon">
<path fill-rule="evenodd" clip-rule="evenodd" d="M1.0625 2.4125C1.0625 1.97758 1.41508 1.625 1.85 1.625H6.575C7.61929 1.625 8.62081 2.03984 9.35923 2.77827C10.0977 3.51669 10.5125 4.51821 10.5125 5.5625V16.5875C10.5125 17.0224 10.1599 17.375 9.725 17.375C9.29008 17.375 8.9375 17.0224 8.9375 16.5875C8.9375 16.1698 8.77156 15.7692 8.47619 15.4738C8.18082 15.1784 7.78022 15.0125 7.3625 15.0125H1.85C1.41508 15.0125 1.0625 14.6599 1.0625 14.225V2.4125ZM8.9375 13.8595V5.5625C8.9375 4.93593 8.68859 4.33501 8.24554 3.89196C7.80248 3.44891 7.20157 3.2 6.575 3.2H2.6375V13.4375H7.3625C7.92023 13.4375 8.46271 13.5854 8.9375 13.8595Z" fill="#F9A55F"/>
<path fill-rule="evenodd" clip-rule="evenodd" d="M10.0908 2.77827C10.8292 2.03984 11.8307 1.625 12.875 1.625H17.6C18.0349 1.625 18.3875 1.97758 18.3875 2.4125V14.225C18.3875 14.6599 18.0349 15.0125 17.6 15.0125H12.0875C11.6698 15.0125 11.2692 15.1784 10.9738 15.4738C10.6784 15.7692 10.5125 16.1698 10.5125 16.5875C10.5125 17.0224 10.1599 17.375 9.725 17.375C9.29008 17.375 8.9375 17.0224 8.9375 16.5875V5.5625C8.9375 4.51821 9.35234 3.51669 10.0908 2.77827ZM10.5125 13.8595C10.9873 13.5854 11.5298 13.4375 12.0875 13.4375H16.8125V3.2H12.875C12.2484 3.2 11.6475 3.44891 11.2045 3.89196C10.7614 4.33501 10.5125 4.93593 10.5125 5.5625V13.8595Z" fill="#F9A55F"/>
</g>
</g>
</svg>
