<svg width="46" height="41" viewBox="0 0 46 41" fill="none" xmlns="http://www.w3.org/2000/svg">
<g id="chalkboard-user-solid" clip-path="url(#clip0_1225_108875)">
<path id="Vector" d="M11.5 5.19409C11.5 2.43628 13.5628 0.194092 16.1 0.194092H41.4C43.9372 0.194092 46 2.43628 46 5.19409V27.6941C46 30.4519 43.9372 32.6941 41.4 32.6941H24.2075C23.3594 30.7019 22.0584 28.9832 20.4412 27.6941H27.6V25.1941C27.6 23.8113 28.6278 22.6941 29.9 22.6941H34.5C35.7722 22.6941 36.8 23.8113 36.8 25.1941V27.6941H41.4V5.19409H16.1V9.03003C14.7487 8.17847 13.1747 7.69409 11.5 7.69409V5.19409ZM11.5 10.1941C12.4061 10.1941 13.3034 10.3881 14.1405 10.765C14.9777 11.1419 15.7383 11.6944 16.379 12.3908C17.0198 13.0872 17.528 13.914 17.8748 14.824C18.2215 15.7339 18.4 16.7092 18.4 17.6941C18.4 18.679 18.2215 19.6543 17.8748 20.5642C17.528 21.4742 17.0198 22.301 16.379 22.9974C15.7383 23.6938 14.9777 24.2463 14.1405 24.6232C13.3034 25.0001 12.4061 25.1941 11.5 25.1941C10.5939 25.1941 9.69663 25.0001 8.85948 24.6232C8.02234 24.2463 7.26169 23.6938 6.62096 22.9974C5.98024 22.301 5.47199 21.4742 5.12523 20.5642C4.77847 19.6543 4.6 18.679 4.6 17.6941C4.6 16.7092 4.77847 15.7339 5.12523 14.824C5.47199 13.914 5.98024 13.0872 6.62096 12.3908C7.26169 11.6944 8.02234 11.1419 8.85948 10.765C9.69663 10.3881 10.5939 10.1941 11.5 10.1941ZM9.58094 27.6941H13.4119C18.7091 27.6941 23 32.3582 23 38.1082C23 39.2566 22.1447 40.1941 21.0809 40.1941H1.91906C0.855313 40.1941 0 39.2644 0 38.1082C0 32.3582 4.29094 27.6941 9.58094 27.6941Z" fill="#EFF0FF"/>
</g>
<defs>
<clipPath id="clip0_1225_108875">
<rect width="46" height="40" fill="white" transform="translate(0 0.194092)"/>
</clipPath>
</defs>
</svg>
