<svg width="20" height="19" viewBox="0 0 20 19" fill="none" xmlns="http://www.w3.org/2000/svg">
<g id="file-plus" clip-path="url(#clip0_1544_6513)">
<path id="Icon" fill-rule="evenodd" clip-rule="evenodd" d="M5.175 0.837524C4.54843 0.837524 3.94751 1.08643 3.50446 1.52948C3.06141 1.97254 2.8125 2.57345 2.8125 3.20002V15.8C2.8125 16.4266 3.06141 17.0275 3.50446 17.4706C3.94751 17.9136 4.54843 18.1625 5.175 18.1625H14.625C15.2516 18.1625 15.8525 17.9136 16.2955 17.4706C16.7386 17.0275 16.9875 16.4266 16.9875 15.8V7.13752C16.9875 6.92867 16.9045 6.72836 16.7568 6.58068L11.2443 1.06818C11.0967 0.920493 10.8964 0.837524 10.6875 0.837524H5.175ZM4.61815 2.64318C4.76584 2.49549 4.96614 2.41252 5.175 2.41252H9.9V7.13752C9.9 7.57245 10.2526 7.92502 10.6875 7.92502H15.4125V15.8C15.4125 16.0089 15.3295 16.2092 15.1818 16.3569C15.0342 16.5046 14.8339 16.5875 14.625 16.5875H5.175C4.96614 16.5875 4.76584 16.5046 4.61815 16.3569C4.47047 16.2092 4.3875 16.0089 4.3875 15.8V3.20002C4.3875 2.99117 4.47047 2.79086 4.61815 2.64318ZM14.2988 6.35002L11.475 3.52622V6.35002H14.2988ZM9.9 8.71252C10.3349 8.71252 10.6875 9.0651 10.6875 9.50002V11.075H12.2625C12.6974 11.075 13.05 11.4276 13.05 11.8625C13.05 12.2974 12.6974 12.65 12.2625 12.65H10.6875V14.225C10.6875 14.6599 10.3349 15.0125 9.9 15.0125C9.46508 15.0125 9.1125 14.6599 9.1125 14.225V12.65H7.5375C7.10258 12.65 6.75 12.2974 6.75 11.8625C6.75 11.4276 7.10258 11.075 7.5375 11.075H9.1125V9.50002C9.1125 9.0651 9.46508 8.71252 9.9 8.71252Z" fill="#EF64C5"/>
</g>
<defs>
<clipPath id="clip0_1544_6513">
<rect width="18.9" height="18.9" fill="white" transform="translate(0.449219 0.0500488)"/>
</clipPath>
</defs>
</svg>
