<svg width="20" height="19" viewBox="0 0 20 19" fill="none" xmlns="http://www.w3.org/2000/svg">
<g id="folder-plus">
<g id="Icon">
<path fill-rule="evenodd" clip-rule="evenodd" d="M3.55 3.2C3.34114 3.2 3.14084 3.28297 2.99315 3.43065C2.84547 3.57834 2.7625 3.77864 2.7625 3.9875V15.0125C2.7625 15.2214 2.84547 15.4217 2.99315 15.5693C3.14084 15.717 3.34114 15.8 3.55 15.8H16.15C16.3589 15.8 16.5592 15.717 16.7068 15.5693C16.8545 15.4217 16.9375 15.2214 16.9375 15.0125V6.35C16.9375 6.14114 16.8545 5.94084 16.7068 5.79315C16.5592 5.64547 16.3589 5.5625 16.15 5.5625H9.0625C8.7992 5.5625 8.55331 5.43091 8.40726 5.21183L7.06604 3.2H3.55ZM1.87946 2.31696C2.32251 1.87391 2.92343 1.625 3.55 1.625H7.4875C7.7508 1.625 7.99669 1.75659 8.14274 1.97567L9.48396 3.9875H16.15C16.7766 3.9875 17.3775 4.23641 17.8205 4.67946C18.2636 5.12251 18.5125 5.72343 18.5125 6.35V15.0125C18.5125 15.6391 18.2636 16.24 17.8205 16.683C17.3775 17.1261 16.7766 17.375 16.15 17.375H3.55C2.92343 17.375 2.32251 17.1261 1.87946 16.683C1.43641 16.24 1.1875 15.6391 1.1875 15.0125V3.9875C1.1875 3.36093 1.43641 2.76001 1.87946 2.31696Z" fill="#EF64C5"/>
<path fill-rule="evenodd" clip-rule="evenodd" d="M10.6375 8.7125C10.6375 8.27758 10.2849 7.925 9.85 7.925C9.41508 7.925 9.0625 8.27758 9.0625 8.7125V10.2875H7.4875C7.05258 10.2875 6.7 10.6401 6.7 11.075C6.7 11.5099 7.05258 11.8625 7.4875 11.8625H9.0625V13.4375C9.0625 13.8724 9.41508 14.225 9.85 14.225C10.2849 14.225 10.6375 13.8724 10.6375 13.4375V11.8625H12.2125C12.6474 11.8625 13 11.5099 13 11.075C13 10.6401 12.6474 10.2875 12.2125 10.2875H10.6375V8.7125ZM10.6375 10.2875H9.0625V11.8625H10.6375V10.2875Z" fill="#EF64C5"/>
<path d="M10.6375 10.2875H9.0625V11.8625H10.6375V10.2875Z" fill="#EF64C5"/>
</g>
</g>
</svg>
