<svg width="40" height="41" viewBox="0 0 40 41" fill="none" xmlns="http://www.w3.org/2000/svg">
<g id="graduation-cap-solid" clip-path="url(#clip0_1225_108896)">
<path id="Vector" d="M20.001 2.69409C19.4947 2.69409 18.9947 2.80347 18.5197 3.0144L0.988462 10.9285C0.394712 11.2019 0.000962017 11.905 0.000962017 12.6941C0.000962017 13.4832 0.394712 14.1863 0.988462 14.4597L4.60721 16.0925C3.58221 18.1082 3.00096 20.491 3.00096 22.9988V25.1941C3.00096 27.4128 2.32596 29.7019 1.60721 31.5066C1.20096 32.5222 0.738462 33.5222 0.200962 34.4441C0.000962019 34.78 -0.055288 35.2175 0.057212 35.616C0.169712 36.0144 0.432212 36.3113 0.757212 36.4128L4.75721 37.6628C5.01971 37.7488 5.30096 37.6863 5.53221 37.5066C5.76346 37.3269 5.92596 37.03 5.97596 36.6941C6.51346 33.3503 6.24471 30.3503 5.84471 28.2019C5.64471 27.0925 5.37596 25.9597 5.00096 24.9207V22.9988C5.00096 20.6394 5.63846 18.4128 6.74471 16.6316C7.55096 15.4207 8.59471 14.4441 9.81971 13.8425L19.6322 9.02222C20.1447 8.77222 20.726 9.08472 20.926 9.72534C21.126 10.366 20.876 11.0925 20.3635 11.3425L10.551 16.1628C9.77596 16.5457 9.09471 17.1316 8.53846 17.8503L18.5135 22.3503C18.9885 22.5613 19.4885 22.6707 19.9947 22.6707C20.501 22.6707 21.001 22.5613 21.476 22.3503L39.0135 14.4597C39.6072 14.1941 40.001 13.4832 40.001 12.6941C40.001 11.905 39.6072 11.2019 39.0135 10.9285L21.4822 3.0144C21.0072 2.80347 20.5072 2.69409 20.001 2.69409ZM8.00096 32.0691C8.00096 34.8269 13.376 37.6941 20.001 37.6941C26.626 37.6941 32.001 34.8269 32.001 32.0691L31.0447 20.7097L22.1572 24.7253C21.4635 25.0378 20.7322 25.1941 20.001 25.1941C19.2697 25.1941 18.5322 25.0378 17.8447 24.7253L8.95721 20.7097L8.00096 32.0691Z" fill="#EFF0FF"/>
</g>
<defs>
<clipPath id="clip0_1225_108896">
<rect width="40" height="40" fill="white" transform="translate(0 0.194092)"/>
</clipPath>
</defs>
</svg>
