<svg width="32" height="41" viewBox="0 0 32 41" fill="none" xmlns="http://www.w3.org/2000/svg">
<g id="building-solid" clip-path="url(#clip0_1225_108882)">
<path id="Vector" d="M4 0.194092C1.79167 0.194092 0 1.87378 0 3.94409V36.4441C0 38.5144 1.79167 40.1941 4 40.1941H12V33.9441C12 31.8738 13.7917 30.1941 16 30.1941C18.2083 30.1941 20 31.8738 20 33.9441V40.1941H28C30.2083 40.1941 32 38.5144 32 36.4441V3.94409C32 1.87378 30.2083 0.194092 28 0.194092H4ZM5.33333 18.9441C5.33333 18.2566 5.93333 17.6941 6.66667 17.6941H9.33333C10.0667 17.6941 10.6667 18.2566 10.6667 18.9441V21.4441C10.6667 22.1316 10.0667 22.6941 9.33333 22.6941H6.66667C5.93333 22.6941 5.33333 22.1316 5.33333 21.4441V18.9441ZM14.6667 17.6941H17.3333C18.0667 17.6941 18.6667 18.2566 18.6667 18.9441V21.4441C18.6667 22.1316 18.0667 22.6941 17.3333 22.6941H14.6667C13.9333 22.6941 13.3333 22.1316 13.3333 21.4441V18.9441C13.3333 18.2566 13.9333 17.6941 14.6667 17.6941ZM21.3333 18.9441C21.3333 18.2566 21.9333 17.6941 22.6667 17.6941H25.3333C26.0667 17.6941 26.6667 18.2566 26.6667 18.9441V21.4441C26.6667 22.1316 26.0667 22.6941 25.3333 22.6941H22.6667C21.9333 22.6941 21.3333 22.1316 21.3333 21.4441V18.9441ZM6.66667 7.69409H9.33333C10.0667 7.69409 10.6667 8.25659 10.6667 8.94409V11.4441C10.6667 12.1316 10.0667 12.6941 9.33333 12.6941H6.66667C5.93333 12.6941 5.33333 12.1316 5.33333 11.4441V8.94409C5.33333 8.25659 5.93333 7.69409 6.66667 7.69409ZM13.3333 8.94409C13.3333 8.25659 13.9333 7.69409 14.6667 7.69409H17.3333C18.0667 7.69409 18.6667 8.25659 18.6667 8.94409V11.4441C18.6667 12.1316 18.0667 12.6941 17.3333 12.6941H14.6667C13.9333 12.6941 13.3333 12.1316 13.3333 11.4441V8.94409ZM22.6667 7.69409H25.3333C26.0667 7.69409 26.6667 8.25659 26.6667 8.94409V11.4441C26.6667 12.1316 26.0667 12.6941 25.3333 12.6941H22.6667C21.9333 12.6941 21.3333 12.1316 21.3333 11.4441V8.94409C21.3333 8.25659 21.9333 7.69409 22.6667 7.69409Z" fill="#EFF0FF"/>
</g>
<defs>
<clipPath id="clip0_1225_108882">
<rect width="32" height="40" fill="white" transform="translate(0 0.194092)"/>
</clipPath>
</defs>
</svg>
