<svg width="52" height="52" viewBox="0 0 52 52" fill="none" xmlns="http://www.w3.org/2000/svg">
<g id="smartphone">
<g id="Icon">
<path fill-rule="evenodd" clip-rule="evenodd" d="M15.168 6.50008C13.9714 6.50008 13.0013 7.47013 13.0013 8.66675V43.3334C13.0013 44.53 13.9714 45.5001 15.168 45.5001H36.8346C38.0313 45.5001 39.0013 44.53 39.0013 43.3334V8.66675C39.0013 7.47013 38.0313 6.50008 36.8346 6.50008H15.168ZM8.66797 8.66675C8.66797 5.0769 11.5781 2.16675 15.168 2.16675H36.8346C40.4245 2.16675 43.3346 5.0769 43.3346 8.66675V43.3334C43.3346 46.9233 40.4245 49.8334 36.8346 49.8334H15.168C11.5781 49.8334 8.66797 46.9233 8.66797 43.3334V8.66675Z" fill="#C0066A"/>
<path fill-rule="evenodd" clip-rule="evenodd" d="M23.8346 39.0001C23.8346 37.8035 24.8047 36.8334 26.0013 36.8334H26.023C27.2196 36.8334 28.1896 37.8035 28.1896 39.0001C28.1896 40.1967 27.2196 41.1667 26.023 41.1667H26.0013C24.8047 41.1667 23.8346 40.1967 23.8346 39.0001Z" fill="#C0066A"/>
</g>
</g>
</svg>
