<svg width="52" height="52" viewBox="0 0 52 52" fill="none" xmlns="http://www.w3.org/2000/svg">
<g id="trending-up" clip-path="url(#clip0_1225_108923)">
<g id="Icon">
<path fill-rule="evenodd" clip-rule="evenodd" d="M52 13C51.9995 13.5538 51.7879 14.1096 51.3654 14.5321L47.6667 18.2308V26C47.6667 27.1967 48.6367 28.1667 49.8333 28.1667C51.03 28.1667 52 27.1967 52 26V13ZM51.847 12.1989C51.7413 11.9327 51.5808 11.6833 51.3654 11.468C51.1577 11.2602 50.9182 11.1035 50.6627 10.9978C50.4097 10.8928 50.1324 10.8345 49.8417 10.8334L49.8333 10.8334H36.8333C35.6367 10.8334 34.6667 11.8034 34.6667 13C34.6667 14.1967 35.6367 15.1667 36.8333 15.1667H44.6025L48.3013 11.468C48.3541 11.4151 48.4091 11.3655 48.4658 11.3193C48.8629 10.9954 49.3483 10.8335 49.8333 10.8334L49.8417 10.8334C50.1211 10.8345 50.4004 10.8893 50.6627 10.9978C51.2017 11.2213 51.6309 11.6561 51.847 12.1989Z" fill="#5B0BD9"/>
<path d="M48.3013 11.468L44.6025 15.1667H47.6667V18.2308L51.3654 14.5321C51.7879 14.1096 51.9995 13.5538 52 13C52 12.9647 51.9992 12.9295 51.9975 12.8945C51.9857 12.6498 51.9334 12.4157 51.847 12.1989C51.6309 11.6561 51.2017 11.2213 50.6627 10.9978C50.4004 10.8893 50.1211 10.8345 49.8417 10.8334L49.8333 10.8334C49.3483 10.8335 48.8629 10.9954 48.4658 11.3193C48.4091 11.3655 48.3541 11.4151 48.3013 11.468Z" fill="#5B0BD9"/>
<path d="M27.7179 35.1154C28.5641 35.9616 29.9359 35.9616 30.7821 35.1154L47.6667 18.2308V15.1667H44.6025L29.25 30.5192L19.9487 21.218C19.1026 20.3718 17.7307 20.3718 16.8846 21.218L0.634602 37.468C-0.211534 38.3141 -0.211534 39.686 0.634602 40.5321C1.48074 41.3782 2.8526 41.3782 3.69873 40.5321L18.4167 25.8142L27.7179 35.1154Z" fill="#5B0BD9"/>
</g>
</g>
<defs>
<clipPath id="clip0_1225_108923">
<rect width="52" height="52" fill="white"/>
</clipPath>
</defs>
</svg>
