<svg width="20" height="19" viewBox="0 0 20 19" fill="none" xmlns="http://www.w3.org/2000/svg">
<g id="mdi:medal">
<path id="Vector" d="M16.5219 1.625H3.92188V3.2L8.49725 6.6335C7.10868 7.09137 5.95873 8.08185 5.30013 9.38723C4.64153 10.6926 4.52818 12.2061 4.985 13.595C5.21101 14.283 5.57044 14.9198 6.04276 15.4688C6.51507 16.0178 7.09098 16.4682 7.73756 16.7945C8.38413 17.1207 9.08867 17.3162 9.81089 17.3699C10.5331 17.4235 11.2588 17.3343 11.9465 17.1072C13.0494 16.7448 14.0097 16.0433 14.6904 15.103C15.3712 14.1626 15.7377 13.0313 15.7377 11.8704C15.7377 10.7095 15.3712 9.57816 14.6904 8.6378C14.0097 7.69743 13.0494 6.996 11.9465 6.6335L16.5219 3.2V1.625ZM12.5371 15.4062L10.2219 14.0518L7.90663 15.4062L8.52087 12.7839L6.48125 11.0199L9.16662 10.7915L10.2219 8.31875L11.2771 10.7915L13.9625 11.0199L11.9229 12.7839L12.5371 15.4062Z" fill="#B9A80F"/>
</g>
</svg>
