<svg width="20" height="19" viewBox="0 0 20 19" fill="none" xmlns="http://www.w3.org/2000/svg">
<g id="ep:pie-chart" clip-path="url(#clip0_1544_6465)">
<path id="Vector" d="M9.14219 1.3139V2.51051C7.39386 2.81142 5.82186 3.75685 4.73653 5.16016C3.6512 6.56346 3.1314 8.32266 3.27975 10.0905C3.42809 11.8583 4.2338 13.5063 5.53782 14.7091C6.84184 15.9119 8.54941 16.5821 10.3234 16.5875C11.9984 16.5873 13.6192 15.994 14.8986 14.9129C16.178 13.8318 17.0333 12.3327 17.3129 10.6812H18.5083C18.2038 12.7455 17.1303 14.6185 15.503 15.9246C13.8756 17.2307 11.8148 17.8734 9.73348 17.724C7.65219 17.5746 5.70428 16.644 4.28022 15.1189C2.85616 13.5937 2.0612 11.5866 2.05469 9.49997C2.05467 7.51139 2.77109 5.58937 4.07273 4.08598C5.37437 2.58259 7.17408 1.59847 9.14219 1.3139Z" fill="#B9A80F"/>
<path id="Vector_2" d="M11.5055 1.84547V8.31872H17.9787C17.839 6.64865 17.1122 5.08208 15.9272 3.89704C14.7421 2.712 13.1755 1.98514 11.5055 1.84547ZM10.3242 1.23122V0.661858C11.5066 0.577208 12.6934 0.747774 13.804 1.16199C14.9147 1.57621 15.9234 2.2244 16.7616 3.06261C17.5998 3.90082 18.248 4.90946 18.6622 6.02014C19.0764 7.13083 19.247 8.31759 19.1623 9.49997H10.3242V1.23122Z" fill="#B9A80F"/>
</g>
<defs>
<clipPath id="clip0_1544_6465">
<rect width="18.9" height="18.9" fill="white" transform="translate(0.875 0.0499878)"/>
</clipPath>
</defs>
</svg>
