<svg width="52" height="52" viewBox="0 0 52 52" fill="none" xmlns="http://www.w3.org/2000/svg">
<g id="Quick content">
<path id="Vector" d="M13.8277 12.9307C17.2808 10.1641 21.5752 8.65969 26 8.66675C30.6042 8.66675 34.8357 10.2614 38.1723 12.9307L41.3205 9.78258L44.3842 12.8462L41.236 15.9944C43.18 18.4282 44.5127 21.2922 45.1226 24.3468C45.7325 27.4013 45.6017 30.5575 44.7413 33.5512C43.8808 36.5449 42.3158 39.2888 40.1771 41.5534C38.0384 43.818 35.3884 45.5373 32.4488 46.5674C29.5092 47.5975 26.3656 47.9085 23.2812 47.4742C20.1967 47.0399 17.2612 45.873 14.7204 44.0712C12.1795 42.2695 10.1073 39.8853 8.67705 37.1182C7.24685 34.3511 6.50034 31.2816 6.5 28.1667C6.5 23.5626 8.09467 19.3311 10.764 15.9944L7.61583 12.8484L10.6795 9.78475L13.8277 12.9307ZM26 43.3334C27.9917 43.3334 29.9639 42.9411 31.804 42.1789C33.6441 41.4167 35.3161 40.2996 36.7245 38.8912C38.1328 37.4828 39.25 35.8109 40.0122 33.9708C40.7744 32.1307 41.1667 30.1585 41.1667 28.1667C41.1667 26.175 40.7744 24.2028 40.0122 22.3627C39.25 20.5226 38.1328 18.8507 36.7245 17.4423C35.3161 16.0339 33.6441 14.9168 31.804 14.1546C29.9639 13.3924 27.9917 13.0001 26 13.0001C21.9776 13.0001 18.1198 14.598 15.2755 17.4423C12.4312 20.2866 10.8333 24.1443 10.8333 28.1667C10.8333 32.1892 12.4312 36.0469 15.2755 38.8912C18.1198 41.7355 21.9776 43.3334 26 43.3334ZM28.1667 26.0001H34.6667L23.8333 40.0834V30.3334H17.3333L28.1667 16.2392V26.0001ZM17.3333 2.16675H34.6667V6.50008H17.3333V2.16675Z" fill="#927005"/>
</g>
</svg>
