<svg width="52" height="41" viewBox="0 0 52 41" fill="none" xmlns="http://www.w3.org/2000/svg">
<g id="school-solid" clip-path="url(#clip0_1225_108889)">
<path id="Vector" d="M27.4462 0.615967C26.5687 0.0534668 25.4312 0.0534668 24.5538 0.615967L13.5119 7.69409H3.9C1.74687 7.69409 0 9.37378 0 11.4441V36.4441C0 38.5144 1.74687 40.1941 3.9 40.1941H48.1C50.2531 40.1941 52 38.5144 52 36.4441V11.4441C52 9.37378 50.2531 7.69409 48.1 7.69409H38.4881L27.4462 0.615967ZM20.8 32.6941C20.8 29.9363 23.1319 27.6941 26 27.6941C28.8681 27.6941 31.2 29.9363 31.2 32.6941V40.1941H20.8V32.6941ZM7.8 15.1941H10.4C11.115 15.1941 11.7 15.7566 11.7 16.4441V21.4441C11.7 22.1316 11.115 22.6941 10.4 22.6941H7.8C7.085 22.6941 6.5 22.1316 6.5 21.4441V16.4441C6.5 15.7566 7.085 15.1941 7.8 15.1941ZM40.3 16.4441C40.3 15.7566 40.885 15.1941 41.6 15.1941H44.2C44.915 15.1941 45.5 15.7566 45.5 16.4441V21.4441C45.5 22.1316 44.915 22.6941 44.2 22.6941H41.6C40.885 22.6941 40.3 22.1316 40.3 21.4441V16.4441ZM7.8 25.1941H10.4C11.115 25.1941 11.7 25.7566 11.7 26.4441V31.4441C11.7 32.1316 11.115 32.6941 10.4 32.6941H7.8C7.085 32.6941 6.5 32.1316 6.5 31.4441V26.4441C6.5 25.7566 7.085 25.1941 7.8 25.1941ZM40.3 26.4441C40.3 25.7566 40.885 25.1941 41.6 25.1941H44.2C44.915 25.1941 45.5 25.7566 45.5 26.4441V31.4441C45.5 32.1316 44.915 32.6941 44.2 32.6941H41.6C40.885 32.6941 40.3 32.1316 40.3 31.4441V26.4441ZM18.85 13.9441C18.85 12.1207 19.6033 10.372 20.9442 9.08273C22.2851 7.79342 24.1037 7.06909 26 7.06909C27.8963 7.06909 29.7149 7.79342 31.0558 9.08273C32.3967 10.372 33.15 12.1207 33.15 13.9441C33.15 15.7675 32.3967 17.5161 31.0558 18.8055C29.7149 20.0948 27.8963 20.8191 26 20.8191C24.1037 20.8191 22.2851 20.0948 20.9442 18.8055C19.6033 17.5161 18.85 15.7675 18.85 13.9441ZM26 10.1941C25.285 10.1941 24.7 10.7566 24.7 11.4441V13.9441C24.7 14.6316 25.285 15.1941 26 15.1941H28.6C29.315 15.1941 29.9 14.6316 29.9 13.9441C29.9 13.2566 29.315 12.6941 28.6 12.6941H27.3V11.4441C27.3 10.7566 26.715 10.1941 26 10.1941Z" fill="#EFF0FF"/>
</g>
<defs>
<clipPath id="clip0_1225_108889">
<rect width="52" height="40" fill="white" transform="translate(0 0.194092)"/>
</clipPath>
</defs>
</svg>
