<svg width="52" height="52" viewBox="0 0 52 52" fill="none" xmlns="http://www.w3.org/2000/svg">
<g id="Scurity">
<path id="Vector" d="M47.2656 10.056C47.0709 9.83365 46.8324 9.65386 46.565 9.52791C46.2976 9.40195 46.0071 9.33254 45.7116 9.32401C41.1216 9.20401 35.3136 4.29601 31.4736 2.37001C29.1016 1.18401 27.5356 0.402013 26.3596 0.196013C26.1209 0.161218 25.8782 0.161892 25.6396 0.198013C24.4636 0.404013 22.8976 1.18601 20.5276 2.37201C16.6876 4.29601 10.8796 9.20401 6.28965 9.32401C5.99399 9.33298 5.70332 9.40258 5.43566 9.5285C5.16801 9.65441 4.92906 9.83396 4.73365 10.056C4.32859 10.5143 4.1196 11.1132 4.15165 11.724C5.13765 31.77 12.3276 44.176 24.9436 51.386C25.2716 51.572 25.6356 51.668 25.9976 51.668C26.3596 51.668 26.7236 51.572 27.0536 51.386C39.6696 44.176 46.8576 31.77 47.8456 11.724C47.8795 11.1133 47.6711 10.5139 47.2656 10.056ZM37.2336 17.94L26.5876 33.65C26.2056 34.214 25.6056 34.588 25.0116 34.588C24.4156 34.588 23.7536 34.262 23.3356 33.844L15.8316 26.338C15.5866 26.0921 15.4491 25.7591 15.4491 25.412C15.4491 25.0649 15.5866 24.7319 15.8316 24.486L17.6856 22.628C17.9321 22.384 18.2648 22.2471 18.6116 22.2471C18.9584 22.2471 19.2912 22.384 19.5376 22.628L24.4176 27.508L32.8956 14.994C33.0918 14.7076 33.3933 14.5105 33.7343 14.4457C34.0753 14.3809 34.4281 14.4536 34.7156 14.648L36.8856 16.12C37.1723 16.3159 37.3699 16.6172 37.4351 16.9582C37.5003 17.2992 37.4279 17.6522 37.2336 17.94Z" fill="#05826A"/>
</g>
</svg>
