<svg width="20" height="19" viewBox="0 0 20 19" fill="none" xmlns="http://www.w3.org/2000/svg">
<g id="users" clip-path="url(#clip0_1544_6494)">
<g id="Icon">
<path fill-rule="evenodd" clip-rule="evenodd" d="M1.97749 12.2283C2.71591 11.4898 3.71743 11.075 4.76172 11.075H11.0617C12.106 11.075 13.1075 11.4898 13.846 12.2283C14.5844 12.9667 14.9992 13.9682 14.9992 15.0125V16.5875C14.9992 17.0224 14.6466 17.375 14.2117 17.375C13.7768 17.375 13.4242 17.0224 13.4242 16.5875V15.0125C13.4242 14.3859 13.1753 13.785 12.7323 13.342C12.2892 12.8989 11.6883 12.65 11.0617 12.65H4.76172C4.13514 12.65 3.53423 12.8989 3.09118 13.342C2.64812 13.785 2.39922 14.3859 2.39922 15.0125V16.5875C2.39922 17.0224 2.04664 17.375 1.61172 17.375C1.17679 17.375 0.824219 17.0224 0.824219 16.5875V15.0125C0.824219 13.9682 1.23906 12.9667 1.97749 12.2283Z" fill="#F9A55F"/>
<path fill-rule="evenodd" clip-rule="evenodd" d="M7.91172 3.2C6.60695 3.2 5.54922 4.25773 5.54922 5.5625C5.54922 6.86727 6.60695 7.925 7.91172 7.925C9.21649 7.925 10.2742 6.86727 10.2742 5.5625C10.2742 4.25773 9.21649 3.2 7.91172 3.2ZM3.97422 5.5625C3.97422 3.38788 5.7371 1.625 7.91172 1.625C10.0863 1.625 11.8492 3.38788 11.8492 5.5625C11.8492 7.73712 10.0863 9.5 7.91172 9.5C5.7371 9.5 3.97422 7.73712 3.97422 5.5625Z" fill="#F9A55F"/>
<path fill-rule="evenodd" clip-rule="evenodd" d="M15.8117 11.768C15.9205 11.3469 16.35 11.0936 16.7711 11.2024C17.6158 11.4205 18.3642 11.913 18.8987 12.6025C19.4332 13.292 19.7236 14.1395 19.7242 15.0119V16.5875C19.7242 17.0224 19.3716 17.375 18.9367 17.375C18.5018 17.375 18.1492 17.0224 18.1492 16.5875V15.0131C18.1488 14.4897 17.9746 13.9811 17.6539 13.5674C17.3332 13.1537 16.8842 12.8582 16.3773 12.7274C15.9562 12.6186 15.703 12.1891 15.8117 11.768Z" fill="#F9A55F"/>
<path fill-rule="evenodd" clip-rule="evenodd" d="M12.6613 2.31954C12.7692 1.89821 13.1982 1.64411 13.6195 1.75198C14.4665 1.96884 15.2172 2.46142 15.7533 3.15207C16.2894 3.84272 16.5804 4.69214 16.5804 5.56644C16.5804 6.44073 16.2894 7.29016 15.7533 7.9808C15.2172 8.67145 14.4665 9.16403 13.6195 9.38089C13.1982 9.48877 12.7692 9.23466 12.6613 8.81333C12.5534 8.392 12.8076 7.96299 13.2289 7.85511C13.7371 7.72499 14.1875 7.42945 14.5091 7.01506C14.8308 6.60067 15.0054 6.09101 15.0054 5.56644C15.0054 5.04186 14.8308 4.53221 14.5091 4.11782C14.1875 3.70343 13.7371 3.40788 13.2289 3.27777C12.8076 3.16989 12.5534 2.74088 12.6613 2.31954Z" fill="#F9A55F"/>
</g>
</g>
<defs>
<clipPath id="clip0_1544_6494">
<rect width="18.9" height="18.9" fill="white" transform="translate(0.824219 0.0500488)"/>
</clipPath>
</defs>
</svg>
