<svg width="20" height="19" viewBox="0 0 20 19" fill="none" xmlns="http://www.w3.org/2000/svg">
<g id="user">
<g id="Icon">
<path fill-rule="evenodd" clip-rule="evenodd" d="M4.54856 11.9555C5.20494 11.291 6.09518 10.9176 7.02344 10.9176H12.6234C13.5517 10.9176 14.4419 11.291 15.0983 11.9555C15.7547 12.6201 16.1234 13.5215 16.1234 14.4613V15.8788C16.1234 16.2703 15.81 16.5876 15.4234 16.5876C15.0368 16.5876 14.7234 16.2703 14.7234 15.8788V14.4613C14.7234 13.8974 14.5022 13.3566 14.1084 12.9579C13.7145 12.5591 13.1804 12.3351 12.6234 12.3351H7.02344C6.46648 12.3351 5.93234 12.5591 5.53851 12.9579C5.14469 13.3566 4.92344 13.8974 4.92344 14.4613V15.8788C4.92344 16.2703 4.61004 16.5876 4.22344 16.5876C3.83684 16.5876 3.52344 16.2703 3.52344 15.8788V14.4613C3.52344 13.5215 3.89219 12.6201 4.54856 11.9555Z" fill="#F9A55F"/>
<path fill-rule="evenodd" clip-rule="evenodd" d="M9.82344 3.8301C8.66364 3.8301 7.72344 4.78205 7.72344 5.95635C7.72344 7.13064 8.66364 8.0826 9.82344 8.0826C10.9832 8.0826 11.9234 7.13064 11.9234 5.95635C11.9234 4.78205 10.9832 3.8301 9.82344 3.8301ZM6.32344 5.95635C6.32344 3.99919 7.89044 2.4126 9.82344 2.4126C11.7564 2.4126 13.3234 3.99919 13.3234 5.95635C13.3234 7.91351 11.7564 9.5001 9.82344 9.5001C7.89044 9.5001 6.32344 7.91351 6.32344 5.95635Z" fill="#F9A55F"/>
</g>
</g>
</svg>
